<svg id="레이어_1" data-name="레이어 1" xmlns="http://www.w3.org/2000/svg" viewBox="0 0 295.51 75.23"><defs><style>.cls-1{fill:#54adfd;}</style></defs><g id="그룹_20" data-name="그룹 20"><path id="패스_42" data-name="패스 42" class="cls-1" d="M333.94,272.54l8.42-6.69a4.23,4.23,0,0,0,1.44-3.31v-59.1a3.54,3.54,0,0,0-3.05-3.89h-8.42a3.55,3.55,0,0,0-3.06,3.89v65.79C329.27,272.28,331.91,274.15,333.94,272.54Z" transform="translate(-329.25 -197.91)"/><path id="패스_43" data-name="패스 43" class="cls-1" d="M378.36,272.54l8.42-6.69a4.23,4.23,0,0,0,1.44-3.31v-59.1a3.54,3.54,0,0,0-3.05-3.89h-8.42a3.55,3.55,0,0,0-3.06,3.89v65.79C373.69,272.28,376.33,274.15,378.36,272.54Z" transform="translate(-329.25 -197.91)"/><path id="패스_44" data-name="패스 44" class="cls-1" d="M489.69,254l-9.92,2a3.36,3.36,0,0,1-3-.95L441.7,220a3.16,3.16,0,0,1-.17-4.46h0l5.95-6a3.16,3.16,0,0,1,4.47.16L491,248.75a3,3,0,0,1,.26,4.31A3,3,0,0,1,489.69,254Z" transform="translate(-329.25 -197.91)"/><path id="패스_45" data-name="패스 45" class="cls-1" d="M332,233.75l4.91,8.42a2.85,2.85,0,0,0,2.42,1.44h43.34a3,3,0,0,0,2.85-3.06v-8.42a2.94,2.94,0,0,0-2.85-3H334.38a3.06,3.06,0,0,0-2.87,3.24A3.12,3.12,0,0,0,332,233.75Z" transform="translate(-329.25 -197.91)"/><path id="패스_46" data-name="패스 46" class="cls-1" d="M529.4,200.32l-30.72,30.73a4.67,4.67,0,0,0,0,6.61h0L529.4,268.4a4.69,4.69,0,0,0,6.62,0h0l30.73-30.73a4.67,4.67,0,0,0,0-6.61h0L536,200.32a4.66,4.66,0,0,0-6.6,0Zm0,47.52-10.18-10.18a4.67,4.67,0,0,1,0-6.61h0l10.18-10.18a4.69,4.69,0,0,1,6.62,0h0L546.2,231a4.67,4.67,0,0,1,0,6.61h0L536,247.84a4.67,4.67,0,0,1-6.61,0Z" transform="translate(-329.25 -197.91)"/><path id="패스_47" data-name="패스 47" class="cls-1" d="M435.68,200.32,405,231.05a4.67,4.67,0,0,0,0,6.61h0l30.72,30.73a4.68,4.68,0,0,0,6.62,0h0L473,237.67a4.67,4.67,0,0,0,0-6.61h0l-30.72-30.73a4.69,4.69,0,0,0-6.62,0Zm0,47.52-10.17-10.18a4.67,4.67,0,0,1,0-6.61h0l10.17-10.18a4.68,4.68,0,0,1,6.62,0h0L452.48,231a4.67,4.67,0,0,1,0,6.61h0l-10.17,10.18a4.68,4.68,0,0,1-6.62,0Z" transform="translate(-329.25 -197.91)"/><path id="사각형_13" data-name="사각형 13" class="cls-1" d="M609.93,200h0a7.27,7.27,0,0,1,0,10.28l-15.22,15.22a7.25,7.25,0,0,1-10.27,0h0a7.27,7.27,0,0,1,0-10.28L599.66,200A7.27,7.27,0,0,1,609.93,200Z" transform="translate(-329.25 -197.91)"/><path id="사각형_14" data-name="사각형 14" class="cls-1" d="M622.63,243.18h0a7.25,7.25,0,0,1,0,10.27l-15.22,15.22a7.25,7.25,0,0,1-10.27,0h0a7.25,7.25,0,0,1,0-10.27l15.22-15.22A7.25,7.25,0,0,1,622.63,243.18Z" transform="translate(-329.25 -197.91)"/><path id="사각형_15" data-name="사각형 15" class="cls-1" d="M622.64,253.45h0a7.27,7.27,0,0,1-10.28,0l-27.92-27.92a7.27,7.27,0,0,1,0-10.28h0a7.27,7.27,0,0,1,10.27,0l27.93,27.93A7.27,7.27,0,0,1,622.64,253.45Z" transform="translate(-329.25 -197.91)"/></g></svg>