<svg id="레이어_1" data-name="레이어 1" xmlns="http://www.w3.org/2000/svg" xmlns:xlink="http://www.w3.org/1999/xlink" viewBox="0 0 80 80"><defs><style>.cls-1{fill:url(#무제_그라디언트_33);}.cls-2,.cls-3{fill:#fff;}.cls-2,.cls-4,.cls-7{isolation:isolate;}.cls-4{fill:#364c8d;}.cls-5{fill:#8bc34a;}.cls-6{fill:#689f38;}.cls-7{fill:#f7d424;}</style><linearGradient id="무제_그라디언트_33" x1="599.57" y1="424.46" x2="599.57" y2="345.25" gradientUnits="userSpaceOnUse"><stop offset="0" stop-color="#3be4ff"/><stop offset="1" stop-color="#5a9ffc"/></linearGradient></defs><path class="cls-1" d="M639.57,385a40,40,0,1,1-40-40A40.12,40.12,0,0,1,639.57,385Z" transform="translate(-559.57 -344.95)"/><path class="cls-2" d="M603.17,370.77a9.6,9.6,0,0,0-5-2.2,12.54,12.54,0,0,0-3.8-3,17.65,17.65,0,0,0-10.6-1.8H583c-.2,0-.4.2-.8.2.4,0,2,.8,3.2,1.2-.6.4-1.6.4-2.2.8H583l-.4.4a3.38,3.38,0,0,0-.4,1,29.21,29.21,0,0,1,9.2.8,14.26,14.26,0,0,0-5.6,1.6,7,7,0,0,0-2.6,2.2c-2.4,2.6-3.4,7-2.6,11.8,1,5.4,4.8,22.8,6.8,32.6l.6,3.2s7,.8,11.2.8c2.4,0,6.4.6,7.4-.4a5.5,5.5,0,0,1-1.6-2.2c-1-2-2-3.8-2.8-5.2-2.4-5-5-11.8-3.8-16.2.2-.8.2-4.2.8-4.6,5.2-3.4,4.8-.2,7-1.6a7,7,0,0,0,2.4-3C610,382.57,606.77,374.37,603.17,370.77Z" transform="translate(-559.57 -344.95)"/><path class="cls-3" d="M599.57,421a36,36,0,1,1,36-36A36.11,36.11,0,0,1,599.57,421Zm0-68a32,32,0,1,0,32,32A32.09,32.09,0,0,0,599.57,353Z" transform="translate(-559.57 -344.95)"/><path class="cls-4" d="M589.57,379.15a2.4,2.4,0,1,0,2.4,2.4A2.76,2.76,0,0,0,589.57,379.15Zm1,2.2a.6.6,0,1,1,.6-.6A.64.64,0,0,1,590.57,381.35Zm14.6-3.2a2,2,0,1,0,2,2A2.15,2.15,0,0,0,605.17,378.15Zm.8,1.8a.6.6,0,1,1,.6-.6A.53.53,0,0,1,606,380Zm-15.8-5.2a3.93,3.93,0,0,0-3.4.2c-1.8,1-1.6,2.2-1.6,2.2s-1-2,1.6-3a2.72,2.72,0,0,1,3.4.6m16.2-.2a4.94,4.94,0,0,0-2.2-.8c-2,0-2.6,1-2.6,1a2.41,2.41,0,0,1,3-1.8,3.49,3.49,0,0,1,1.8,1.6" transform="translate(-559.57 -344.95)"/><path class="cls-5" d="M598.17,408.35s-8.6-4.6-8.8-2.8,0,9.4,1,10,8.2-3.8,8.2-3.8Zm3.4-.2s5.8-4.4,7.2-4.2c1.2.2,1.6,9.4.4,9.8s-7.8-2.4-7.8-2.4Z" transform="translate(-559.57 -344.95)"/><path class="cls-6" d="M596.57,408.35c0,3-.4,4.2.8,4.6,1.2.2,3.8,0,4.6-.6s.2-4.4-.2-5.2c-.2-.6-5.2,0-5.2,1.2" transform="translate(-559.57 -344.95)"/><path class="cls-7" d="M596.17,390.55c.2-1.4,4-4.2,6.6-4.4a43.72,43.72,0,0,0,5.6-.6c2.2-.6,7.8-2,9.4-2.6,1.6-.8,8.2.4,3.6,3a68.35,68.35,0,0,1-11.4,4.4c-3.8,1.2-6.2-1.2-7.6.8-1,1.6-.2,3.6,4.4,4,6.2.6,12.4-2.8,13-1s-5.4,4-9.2,4.2c-3.6,0-11.2-2.4-12.2-3.2a5.68,5.68,0,0,1-2.2-4.6" transform="translate(-559.57 -344.95)"/></svg>