<svg id="레이어_1" data-name="레이어 1" xmlns="http://www.w3.org/2000/svg" viewBox="0 0 27.26 31.12"><defs><style>.cls-1{fill:#bebebe;}</style></defs><path id="패스_23" data-name="패스 23" class="cls-1" d="M743.21,211a2.35,2.35,0,0,1,.27-1.1,2,2,0,0,1,.77-.81l6.94-4.23a2.12,2.12,0,0,1,1.63-.24,2.7,2.7,0,0,1,.53.22l7.14,4.15a2.15,2.15,0,0,1,.46.35,3,3,0,0,1,.35.45,2.32,2.32,0,0,1,.3,1.12l0,3.44a1,1,0,0,0,.2.59.94.94,0,0,0,.5.35l2.48.74a.94.94,0,0,0,1.12-.49,1.09,1.09,0,0,0,.1-.44l-.06-6.2a3.48,3.48,0,0,0-1-2.32,3.5,3.5,0,0,0-.68-.52L753.78,200a3.29,3.29,0,0,0-.78-.32,3.06,3.06,0,0,0-2.4.35l-10.2,6.24a3,3,0,0,0-.65.53,2.92,2.92,0,0,0-.48.67,3.32,3.32,0,0,0-.3.78,3,3,0,0,0-.09.84l0,2.26.18,10a3.36,3.36,0,0,0,.95,2.28,3.09,3.09,0,0,0,.67.52l10.38,6.13a3.13,3.13,0,0,0,1.6.44,3.09,3.09,0,0,0,1.57-.43l10.31-6.13a2.81,2.81,0,0,0,.66-.52,3.25,3.25,0,0,0,.5-.67,3.14,3.14,0,0,0,.3-.79,3,3,0,0,0,.1-.85v-.39a2,2,0,0,0-.39-1.13,1.81,1.81,0,0,0-.42-.41,1.92,1.92,0,0,0-.54-.26l-20.87-6.25a.92.92,0,0,1-.28-.14,1,1,0,0,1-.41-.79Z" transform="translate(-738.88 -199.54)"/></svg>