<svg id="레이어_1" data-name="레이어 1" xmlns="http://www.w3.org/2000/svg" viewBox="0 0 22.33 21.37"><defs><style>.cls-1{fill:#3d3d3d;stroke:#3d3d3d;stroke-miterlimit:10;stroke-width:2px;}</style></defs><path id="패스_41" data-name="패스 41" class="cls-1" d="M670.9,233.46l2.28,7a.16.16,0,0,0,.16.12h7.38a.19.19,0,0,1,.17.18.17.17,0,0,1-.07.14l-6,4.34a.17.17,0,0,0-.06.2l2.28,7a.19.19,0,0,1-.11.23.16.16,0,0,1-.16,0l-6-4.33a.17.17,0,0,0-.21,0l-6,4.33a.19.19,0,0,1-.25,0,.2.2,0,0,1,0-.17l2.28-7a.17.17,0,0,0-.07-.2l-6-4.34a.17.17,0,0,1,0-.24.18.18,0,0,1,.13-.08h7.38a.17.17,0,0,0,.17-.12l2.28-7a.17.17,0,0,1,.21-.13A.21.21,0,0,1,670.9,233.46Z" transform="translate(-659.56 -232.33)"/></svg>